<svg width="159" height="61" viewBox="0 0 159 61" fill="none" xmlns="http://www.w3.org/2000/svg">
<path d="M117.95 0.703613H90.0601V60.3893H117.95V0.703613Z" fill="#AE0000"/>
<path d="M90.0602 0.703613H47.0103V60.3893H90.0602V0.703613Z" fill="#FF8600"/>
<path d="M121.133 0.703613H117.95V60.3893H121.133V0.703613Z" fill="#0065B1"/>
<path d="M42.224 0.703613H0.801758V60.3893H42.224V0.703613Z" fill="#E90A0A"/>
<path d="M160.174 0.703613H121.133V60.3893H160.174V0.703613Z" fill="#008F20"/>
<path d="M47.0101 0.703613H42.2241V60.3893H47.0101V0.703613Z" fill="#26221E"/>
<path d="M50.3138 32.0992V42.896H44.8475V32.9484C44.8475 29.8914 43.487 28.5084 41.2762 28.5084C38.8224 28.5084 37.0975 30.0855 37.0975 33.4337V42.896H31.6313V32.9484C31.6313 29.8914 30.3436 28.5084 28.06 28.5084C25.6305 28.5084 23.9299 30.0855 23.9299 33.4337V42.896H18.4393V28.2658H16.3257V24.0441H22.8123L23.1039 26.9556C24.4644 24.8933 26.8209 23.7772 29.5905 23.7772C32.2143 23.7772 34.4737 24.7962 35.7856 26.8586C37.2919 24.9418 39.7456 23.7772 42.5881 23.7772C47.0826 23.7772 50.3138 26.3733 50.3138 32.0992Z" fill="white"/>
<path d="M76.4549 36.1996C76.4549 40.4456 73.0779 42.8961 66.6398 42.8961H54.5898V23.0009H51.9902V18.391H65.9353C72.0818 18.391 75.2158 20.9385 75.2158 24.772C75.2158 27.2225 73.9525 29.115 71.9604 30.1583C74.7056 31.0317 76.4549 33.1183 76.4549 36.1996ZM60.2261 22.6612V28.4356H65.2308C68.0003 28.4356 69.5066 27.4651 69.5066 25.5242C69.5066 23.6074 68.0003 22.6612 65.2308 22.6612H60.2261ZM70.7213 35.6173C70.7213 33.555 69.1665 32.5603 66.2268 32.5603H60.2261V38.6259H66.2268C69.1665 38.6259 70.7213 37.7039 70.7213 35.6173Z" fill="white"/>
<path d="M98.6842 24.0442V42.8719H93.4608V40.7125C92.1003 42.3624 90.0839 43.163 87.5816 43.163C82.261 43.163 78.1553 39.3781 78.1553 33.458C78.1553 27.538 82.261 23.7531 87.5816 23.7531C89.8895 23.7531 91.8574 24.4809 93.2179 26.0337V24.0442H98.6842ZM93.3394 33.4823C93.3394 30.2311 91.2257 28.2659 88.529 28.2659C85.7838 28.2659 83.6944 30.2311 83.6944 33.4823C83.6944 36.7335 85.8081 38.6987 88.529 38.6987C91.2257 38.6987 93.3394 36.7335 93.3394 33.4823Z" fill="white"/>
<path d="M122.663 32.0993V42.8961H117.197V32.9485C117.197 29.8915 115.788 28.5085 113.382 28.5085C110.759 28.5085 108.864 30.1098 108.864 33.5793V42.8961H103.397V28.2659H101.284V24.0442H107.77L108.062 26.98C109.495 24.8691 111.949 23.7531 114.864 23.7531C119.31 23.7773 122.663 26.3734 122.663 32.0993Z" fill="white"/>
<path d="M145.743 42.8961H139.548L134.203 34.7197H131.676V42.8961H126.21V16.911H131.676V30.5708H134.203L139.256 24.0442H145.354L138.94 32.3177L145.743 42.8961Z" fill="white"/>
</svg>
