<svg width="141" height="135" viewBox="0 0 141 135" fill="none" xmlns="http://www.w3.org/2000/svg">
<g clip-path="url(#clip0_1364_1586)">
<path d="M48.4502 135L67.5977 135L67.5976 0.000259399L48.4501 0.000266153L48.4502 135Z" fill="#FF8600"/>
<path d="M91.9659 8.46008H86.9326V130.276H91.9659V8.46008Z" fill="#0065B1"/>
<path d="M24.6737 108.11L48.4512 108.11L48.4511 12.3055L24.6737 12.3055L24.6737 108.11Z" fill="#E90A0A"/>
<path d="M86.9321 26.4244H67.5977V119.826H86.9321V26.4244Z" fill="#AE0000"/>
<path d="M117.142 112.206V38.8396H91.9658V112.206H117.142Z" fill="#008F20"/>
<path d="M139.312 49.5338C136.471 38.0319 129.806 29.0181 120.143 22.0251C119.297 21.4117 118.346 21.2656 117.333 21.6251C116.212 22.0231 115.598 22.8557 115.436 23.9478C115.245 25.2418 115.973 26.1474 116.987 26.8762C120.95 29.7257 124.391 33.0828 127.207 37.0264C131.406 42.9061 133.854 49.4185 134.759 56.5384C135.306 60.8492 135.235 65.1312 134.621 69.3997C133.791 75.1679 132.022 80.6766 129.45 85.943C128.657 87.5658 129.249 89.2347 130.731 89.8923C132.27 90.5768 133.929 89.9904 134.714 88.4041C137.289 83.1973 139.115 77.7482 140.066 72.0357C140.412 69.9457 142.132 62.1048 139.312 49.5338ZM100.096 80.2863C95.0846 73.7643 93.1563 66.3617 92.8217 58.3804C92.6053 53.2428 92.4085 48.086 91.165 43.0503C89.7482 37.3051 86.6314 32.8213 80.813 30.6351C78.3691 29.7161 75.7462 29.2527 72.9816 28.524C73.2256 28.2644 73.4637 27.8798 73.812 27.6626C76.1102 26.2263 77.4424 24.2939 77.3873 21.5328C77.3263 18.5218 75.335 15.9646 72.3087 15.1455C69.3414 14.3418 66.1715 15.5916 64.6092 18.1834C62.5923 21.529 63.7158 25.5668 67.2045 27.6453C67.5371 27.8433 67.7122 28.2932 67.9601 28.6259C67.6177 28.8162 67.2931 29.0623 66.9271 29.1835C66.3309 29.3815 65.7032 29.4892 65.0932 29.6526C56.9077 31.8369 51.5261 36.7226 50.1231 45.073C49.2455 50.2933 48.7969 55.5828 48.1987 60.8473C47.5454 66.5944 46.0657 72.0723 42.8663 77.0137C40.5366 80.6093 38.0966 84.1414 35.8987 87.8138C33.445 91.917 32.2861 96.3604 33.0574 101.335H34.5627C51.5221 101.335 68.4835 101.335 85.4429 101.335C92.5522 101.335 99.6614 101.325 106.773 101.348C107.55 101.35 108.028 101.26 108.118 100.346C108.49 96.5642 108.14 92.8726 106.184 89.5481C104.307 86.3679 102.343 83.2127 100.096 80.2863ZM70.5574 24.8207C68.8338 24.8361 67.3678 23.446 67.3383 21.7693C67.3088 20.0658 68.8259 18.5545 70.5515 18.5718C72.2516 18.5872 73.692 20.0254 73.6979 21.7097C73.7038 23.4248 72.3087 24.8054 70.5574 24.8207ZM6.85383 53.1332C8.40239 45.248 11.9698 38.2896 17.6859 32.4887C19.7657 30.3775 22.1506 28.5509 24.4173 26.6147C25.535 25.661 25.9206 24.5169 25.4523 23.3075C25.0037 22.1539 23.9648 21.4463 22.6464 21.2925C22.0168 21.5771 21.3025 21.7559 20.7712 22.1635C19.0889 23.4517 17.4065 24.7534 15.8442 26.1763C6.50358 34.6729 1.4309 45.2346 0.321131 57.5805C-0.393136 65.5253 0.620219 73.3355 3.24707 80.8977C4.15811 83.5203 5.32691 86.0622 6.48194 88.5964C7.03092 89.8 8.33943 90.3461 9.52987 90.1288C10.8836 89.8808 11.9147 88.9521 11.9186 87.6235C11.9226 86.7832 11.5822 85.8949 11.2162 85.1066C6.45832 74.8737 4.67364 64.2428 6.85383 53.1332ZM24.2973 78.8C20.8401 71.4224 19.5709 63.7218 21.1608 55.7328C22.7055 47.9687 26.9379 41.7602 33.3939 36.9937C35.0605 35.7631 35.4659 34.1788 34.4643 32.7886C33.4175 31.3389 31.6761 31.1447 29.9898 32.381C19.7716 39.8759 14.8328 49.9511 14.6517 63.3007C14.7993 64.7485 14.943 67.15 15.3109 69.5169C15.9957 73.9335 17.4144 78.1443 19.4588 82.1398C20.0924 83.38 21.5839 83.901 22.9199 83.4915C24.2521 83.0839 25.1001 81.8302 24.8915 80.4247C24.8089 79.8671 24.5433 79.323 24.2973 78.8ZM110.789 32.1695C108.872 30.8274 106.304 31.8945 106.104 34.0711C105.984 35.3632 106.605 36.238 107.64 36.9975C115.098 42.4639 119.383 49.753 120.379 58.7919C121.168 65.9599 119.653 72.7741 116.538 79.2768C115.712 80.9996 116.259 82.6916 117.841 83.3934C119.35 84.0625 121.046 83.3665 121.849 81.6976C124.783 75.6005 126.349 69.1939 126.392 62.2547C126.371 56.0808 125.019 50.026 121.892 44.4059C119.159 39.4952 115.434 35.4247 110.789 32.1695ZM102.426 43.3926C100.574 42.0351 98.3037 42.735 97.6465 44.8039C97.2884 45.9306 97.6878 47.0496 98.8842 47.936C101.358 49.7665 103.384 51.9584 104.73 54.7041C107.812 60.9896 107.194 67.2173 104.376 73.399C103.569 75.1698 104.065 76.8965 105.594 77.5636C107.188 78.2578 108.868 77.5675 109.687 75.8389C111.552 71.8935 112.542 67.7499 112.595 63.2411C112.565 59.8801 111.957 56.4807 110.523 53.237C108.75 49.2262 105.978 45.996 102.426 43.3926ZM36.3966 76.8407C37.3155 75.8082 37.286 74.6584 36.7311 73.4817C34.2931 68.3229 33.5493 62.9969 35.2002 57.4786C36.373 53.5581 38.7676 50.4452 42.0989 47.9995C43.4428 47.0131 43.858 45.6499 43.248 44.3424C42.4236 42.5773 40.2867 42.162 38.5217 43.481C31.8434 48.4686 28.5573 55.1079 28.4924 62.372C28.5101 67.7634 29.4821 72.0319 31.5325 76.0312C31.8709 76.6907 32.5871 77.3137 33.2837 77.6136C34.419 78.1039 35.5505 77.7944 36.3966 76.8407ZM59.5266 104.117C59.503 110.339 64.7882 115.103 71.1773 114.819C77.1138 114.555 82.0408 109.485 81.4859 104.117H59.5266Z" fill="white" stroke="black" stroke-miterlimit="10"/>
</g>
<defs>
<clipPath id="clip0_1364_1586">
<rect width="141" height="135" fill="white"/>
</clipPath>
</defs>
</svg>
