<svg width="251" height="199" viewBox="0 0 251 199" fill="none" xmlns="http://www.w3.org/2000/svg">
<g clip-path="url(#clip0_1364_1618)">
<path d="M0 98.5087C0 35.648 34.9459 0 81.9133 0C129.149 0 163.827 35.648 163.827 98.5087C163.827 161.369 129.149 197.017 81.9133 197.017C34.9459 197.027 0 161.379 0 98.5087ZM119.327 98.5087C119.327 55.2354 104.034 37.2779 81.9229 37.2779C60.0793 37.2779 44.7869 55.2354 44.7869 98.5087C44.7869 141.782 60.0793 159.739 81.9229 159.739C104.034 159.739 119.327 141.782 119.327 98.5087Z" fill="#00A31B"/>
<path d="M185.839 183.67V197.767H129.279V186.72L161.566 148.67H130.102V134.573H184.778V145.61L152.49 183.66H185.839V183.67Z" fill="#FF0000"/>
<path d="M217.543 155.361V197.758H199.161V169.106L192.677 173.919L185.839 164.759L199.152 154.78V110.62H217.533V140.921L224.017 136.107L230.731 145.506L217.543 155.361Z" fill="#FF0000"/>
<path d="M185.839 183.67V197.767H129.279V186.72L161.566 148.67H130.102V134.573H184.778V145.61L152.49 183.66H185.839V183.67Z" stroke="white" stroke-width="11"/>
<path d="M217.543 155.361V197.758H199.161V169.106L192.677 173.919L185.839 164.759L199.152 154.78V110.62H217.533V140.921L224.017 136.107L230.731 145.506L217.543 155.361Z" stroke="white" stroke-width="11"/>
<path d="M185.839 183.67V197.767H129.279V186.72L161.566 148.67H130.102V134.573H184.778V145.61L152.49 183.66H185.839V183.67Z" fill="#00A31B"/>
<path d="M217.543 155.361V197.758H199.161V169.106L192.677 173.919L185.839 164.759L199.152 154.78V110.62H217.533V140.921L224.017 136.107L230.731 145.506L217.543 155.361Z" fill="#00A31B"/>
</g>
<defs>
<clipPath id="clip0_1364_1618">
<rect width="251" height="199" fill="white"/>
</clipPath>
</defs>
</svg>
