<svg width="126" height="147" viewBox="0 0 126 147" fill="none" xmlns="http://www.w3.org/2000/svg">
<g clip-path="url(#clip0_1369_1765)">
<path d="M32.7383 146.128L49.7793 146.128L49.7792 37.7086L32.7382 37.7086L32.7383 146.128Z" fill="#FF8600"/>
<path d="M91.3408 0H84.416V141.302H91.3408V0Z" fill="#0065B1"/>
<path d="M0.00468826 118.145L32.7324 118.145L32.7324 28.8008L0.0046357 28.8008L0.00468826 118.145Z" fill="#E90A0A"/>
<path d="M84.4164 24.301H57.8008V128.663H84.4164V24.301Z" fill="#AE0000"/>
<path d="M126 124.027V37.7123H91.3408V124.027H126Z" fill="#008F20"/>
<path d="M111.915 109.731H20.2322C17.4175 109.731 15.1328 107.758 15.1328 105.328V54.9263C15.1328 52.4962 17.4175 50.5237 20.2322 50.5237H111.903C114.717 50.5237 117.002 52.4962 117.002 54.9263V105.338C117.002 107.758 114.717 109.731 111.915 109.731Z" fill="white" stroke="black" stroke-width="1.3841" stroke-miterlimit="10"/>
<path d="M93.9553 130.89C111.048 130.89 124.905 118.926 124.905 104.169C124.905 89.4114 111.048 77.448 93.9553 77.448C76.8624 77.448 63.0059 89.4114 63.0059 104.169C63.0059 118.926 76.8624 130.89 93.9553 130.89Z" fill="white" stroke="black" stroke-width="1.3841" stroke-miterlimit="10"/>
<path d="M15.1445 96.604H63.7238" stroke="black" stroke-width="1.3841" stroke-miterlimit="10"/>
<path d="M15.1445 88.6528H68.7408" stroke="black" stroke-width="1.3841" stroke-miterlimit="10"/>
<path d="M23.8125 65.3687H43.5975" stroke="black" stroke-width="1.3841" stroke-miterlimit="10"/>
<path d="M55.5039 65.3687H75.2889" stroke="black" stroke-width="1.3841" stroke-miterlimit="10"/>
<path d="M87.1953 65.3687H106.98" stroke="black" stroke-width="1.3841" stroke-miterlimit="10"/>
<path d="M106.957 118.139H83.5329C82.579 118.139 81.8135 117.478 81.8135 116.655V105.653C81.8135 104.83 82.579 104.169 83.5329 104.169H106.945C107.899 104.169 108.665 104.83 108.665 105.653V116.655C108.676 117.478 107.899 118.139 106.957 118.139Z" fill="white" stroke="black" stroke-width="1.3841" stroke-miterlimit="10"/>
<path d="M86.7236 104.138V94.0824C86.7236 92.2014 88.4902 90.6864 90.6571 90.6864H99.4544C101.633 90.6864 103.388 92.2116 103.388 94.0824V104.138" stroke="black" stroke-width="1.3841" stroke-miterlimit="10"/>
</g>
<defs>
<clipPath id="clip0_1369_1765">
<rect width="126" height="146.121" fill="white"/>
</clipPath>
</defs>
</svg>
