<svg width="126" height="125" viewBox="0 0 126 125" fill="none" xmlns="http://www.w3.org/2000/svg">
<g clip-path="url(#clip0_1364_1594)">
<path d="M38.0632 125L55.9941 125L55.9942 9.06698L38.0633 9.06697L38.0632 125Z" fill="#FF8600"/>
<path d="M78.8122 0H74.0996V117.734H78.8122V0Z" fill="#0065B1"/>
<path d="M15.797 114.433L38.0635 114.433L38.0635 26.6667L15.797 26.6667L15.797 114.433Z" fill="#E90A0A"/>
<path d="M74.0993 22.0979H55.9941V109.69H74.0993V22.0979Z" fill="#AE0000"/>
<path d="M78.8115 12.4446V93.8674H105.59V12.4446H78.8115Z" fill="#008F20"/>
<path d="M81.3653 33.9434H34.9402V18.3771L17.5375 33.4278L0.134766 48.4786L34.9402 78.5784V63.0121H81.3653V33.9434Z" fill="white" stroke="black" stroke-miterlimit="10"/>
<path d="M44.6338 100.006H91.0589V115.572L108.462 100.522L125.864 85.4726L91.0589 55.3711V70.9374H44.6338V100.006Z" fill="white" stroke="black" stroke-miterlimit="10"/>
</g>
<defs>
<clipPath id="clip0_1364_1594">
<rect width="126" height="125" fill="white"/>
</clipPath>
</defs>
</svg>
